<svg width="62" height="62" viewBox="0 0 62 62" fill="none" xmlns="http://www.w3.org/2000/svg">
<g clip-path="url(#clip0_37_19)">
<path d="M44.5124 25.9008C44.3099 26.0579 40.7351 28.0722 40.7351 32.5511C40.7351 37.7317 45.2839 39.5645 45.42 39.6099C45.3991 39.7216 44.6974 42.1199 43.0217 44.5636C41.5276 46.714 39.9671 48.861 37.5933 48.861C35.2194 48.861 34.6085 47.482 31.868 47.482C29.1974 47.482 28.2479 48.9064 26.0765 48.9064C23.9051 48.9064 22.39 46.9165 20.648 44.4728C18.6302 41.6032 16.9999 37.1452 16.9999 32.9142C16.9999 26.1277 21.4125 22.5285 25.7553 22.5285C28.0629 22.5285 29.9864 24.0436 31.4352 24.0436C32.8141 24.0436 34.9645 22.4377 37.5898 22.4377C38.5847 22.4377 42.1595 22.5285 44.5124 25.9008ZM36.3435 19.5646C37.4292 18.2765 38.1972 16.4891 38.1972 14.7017C38.1972 14.4538 38.1762 14.2025 38.1309 14C36.3644 14.0663 34.2629 15.1765 32.9956 16.6462C32.0007 17.7772 31.0721 19.5646 31.0721 21.3765C31.0721 21.6487 31.1175 21.921 31.1384 22.0083C31.2501 22.0293 31.4317 22.0537 31.6132 22.0537C33.1981 22.0537 35.1915 20.9924 36.3435 19.5646Z" fill="black"/>
</g>
<defs>
<clipPath id="clip0_37_19">
<rect width="28.4166" height="34.9098" fill="white" transform="translate(17 14)"/>
</clipPath>
</defs>
</svg>
