<svg width="62" height="62" viewBox="0 0 62 62" fill="none" xmlns="http://www.w3.org/2000/svg">
<g clip-path="url(#clip0_37_26)">
<path d="M48.8459 20.2981C47.5271 20.8831 46.1096 21.2783 44.6222 21.4561C46.1404 20.5459 47.3067 19.1047 47.8557 17.3874C46.4346 18.2303 44.8607 18.8422 43.1855 19.172C41.8441 17.7426 39.9328 16.8497 37.8175 16.8497C33.7562 16.8497 30.4632 20.1423 30.4632 24.2036C30.4632 24.7801 30.5283 25.3414 30.6537 25.8796C24.5416 25.573 19.1228 22.6451 15.4955 18.1957C14.8625 19.2818 14.4997 20.545 14.4997 21.8928C14.4997 24.4444 15.7981 26.6953 17.7714 28.0141C16.5659 27.9759 15.4319 27.645 14.4404 27.0943C14.4396 27.1249 14.4396 27.1557 14.4396 27.1868C14.4396 30.7498 16.9746 33.722 20.3389 34.3981C19.7218 34.5662 19.0721 34.656 18.4014 34.656C17.9276 34.656 17.467 34.6097 17.0178 34.5241C17.9537 37.4457 20.6696 39.5719 23.8879 39.631C21.3709 41.6036 18.2 42.7794 14.7543 42.7794C14.1607 42.7794 13.5753 42.7444 13 42.6765C16.2546 44.7633 20.1203 45.9808 24.2734 45.9808C37.8004 45.9808 45.1977 34.7748 45.1977 25.0562C45.1977 24.7374 45.1906 24.4203 45.1764 24.1047C46.6131 23.068 47.8598 21.7729 48.8458 20.2981H48.8459Z" fill="#1DA1F2"/>
</g>
<defs>
<clipPath id="clip0_37_26">
<rect width="35.8459" height="29.1311" fill="white" transform="translate(13 16)"/>
</clipPath>
</defs>
</svg>
