<svg width="62" height="62" viewBox="0 0 62 62" fill="none" xmlns="http://www.w3.org/2000/svg">
<path d="M27.9894 46.6864C20.2822 45.3072 14.4409 38.6547 14.4409 30.6229C14.4409 21.6987 21.7425 14.3972 30.6667 14.3972C39.5909 14.3972 46.8925 21.6987 46.8925 30.6229C46.8925 38.6547 41.0512 45.3072 33.3439 46.6864L32.4515 45.9562H28.8819L27.9894 46.6864Z" fill="url(#paint0_linear_37_12)"/>
<path d="M36.9948 35.1661L37.7249 30.6229H33.4251V27.4589C33.4251 26.1608 33.9119 25.1873 35.859 25.1873H37.9683V21.0497C36.8325 20.8875 35.5344 20.7252 34.3986 20.7252C30.6667 20.7252 28.0706 22.9968 28.0706 27.0533V30.6229H24.0142V35.1661H28.0706V46.6053C28.963 46.7676 29.8554 46.8487 30.7478 46.8487C31.6403 46.8487 32.5327 46.7675 33.4251 46.6053V35.1661H36.9948Z" fill="white"/>
<defs>
<linearGradient id="paint0_linear_37_12" x1="30.6677" y1="45.7195" x2="30.6677" y2="14.3909" gradientUnits="userSpaceOnUse">
<stop stop-color="#0062E0"/>
<stop offset="1" stop-color="#19AFFF"/>
</linearGradient>
</defs>
</svg>
